# xmcd
# Copyright (C) 1995-1998 Ti Kan
#
# Track frame offsets:
#       150
#       3084
#       5827
#       8502
#       11963
#       12563
#       13136
#       14486
#       15836
#       16942
#       17542
#       17992
#       20574
#       22671
#
# Disc length: 312 seconds
#
# Revision: 0
# Processed by: cddbd v1.5.2PL0 Copyright (c) Steve Scherf et al.
# Submitted via: CD-Import v1.0
#
DISCID=8601360e
DTITLE=Buchs - 
DYEAR=1900
DGENRE=
TTITLE0=Club 1
TTITLE1=Club Bass
TTITLE2=Club Rasta
TTITLE3=London
TTITLE4=Low Freq
TTITLE5=High Freq
TTITLE6=Primetime
TTITLE7=Samples
TTITLE8=New
TTITLE9=Next Record
TTITLE10=Twist Ya Head
TTITLE11=Vienna
TTITLE12=End
TTITLE13=Delay
EXTD=
EXTT0=
EXTT1=
EXTT2=
EXTT3=
EXTT4=
EXTT5=
EXTT6=
EXTT7=
EXTT8=
EXTT9=
EXTT10=
EXTT11=
EXTT12=
EXTT13=
PLAYORDER=
